<svg xmlns="http://www.w3.org/2000/svg" width="577" height="135" viewBox="0 0 426.384 99.947" shape-rendering="geometricPrecision" text-rendering="geometricPrecision" image-rendering="optimizeQuality" fill-rule="evenodd" clip-rule="evenodd"><title>Логотип</title><desc>Содержание сайта - ерунда, призываем не тратить на нее много времени.</desc><defs><style>.str1{stroke:#7c00bd;stroke-width:2.57238}.fil1{fill:none}.fil2{fill:#ed9c00;fill-rule:nonzero}</style></defs><path d="M41.726 74.168H30.248l-6-11.478h34.955v6H47.725l-6 5.478zm5.995 12.007L59.203 74.63v11.277h81.389L175.45 62.69v23.451h23.398l-.005-11.587 11.729-.141V86.01h34.893l-.11-11.598h35.076l.006 11.597 23.192-.103 5.218-11.74h13.173l4.826 11.74h23.216V62.82l-17.217-23.868-17.477-11.218h-11.74l-5.738 11.218-5.873 23.732H280.42l.005-34.924H251.49l-5.994 23.327-11.777-.136.016-23.19h-23.163v23.326h-11.729V27.735H152.33l6 23.217h-11.48l-6-11.74V27.736h-23.687v12l-11.148-12.06-46.815.06v11.292l-11.478-11.16H12.898L1.03 39.734V74.43l11.739 11.739 34.953.007zm34.7-12.007V62.952h23.477l11.268-11.739 23.427 11.478-34.956 11.478H82.42zM47.724 51.213H24.51v-12h17.477l5.739 6v6zm34.956 0V39.474h17.478l5.739 6-5.478 5.739H82.68zM256.9 62.691l6.206-23.478h5.739V62.69H256.9zm52.728 0l5.74-23.478 5.999 23.478h-11.739z" fill="#7c00bd" stroke="#ed9c00" stroke-width="2.058"/><path class="fil1 str1" d="M389.192 49.288l2.593-11.236m0 0l7.347-9.075m0 0l9.939-1.729m-19.879 22.04l4.754 9.94m0 0l13.397 3.89 12.1-6.483m0 0l5.618-14.261-1.728-11.236-14.262-3.89m0 0l6.483 9.94m-23.769.864l23.769-.864"/><path class="fil1 str1" d="M389.192 49.288l16.854-3.025 1.297 16.855m15.99-31.98l-5.249 9.229m6.977 2.007l-6.977-2.007m6.977 2.007l-17.902-.816 12.284 15.077m-3.889-19.447l3.278 1.864m-11.673 2.506l-1.113 4.705m1.113-4.705l-15.374-3.506m23.127-1.847l-7.753 5.353m4.368 5.362l-4.984 5.799m-6.41-5.394l-3.693-8.211"/><path class="fil1" d="M395.313 20.463c-13.723-14.085-31.982-18.754-63.735 5.142m65.339-9.095C387.102 2.04 366.371-.876 351.703 2.621m38.395 18.571c-10.02-10.858-26.244-6.79-37.717 6.383" stroke="#ed9c00" stroke-width="2.572"/><path class="fil1 str1" d="M406.97 58.278l10.949-3.514m3.653-13.393l-3.653 13.393m-11.225 5.112l-15.125-5.618m3.35 1.245l-1.259-7.016"/><path class="fil2" d="M23.781 99.723h-3.41v-4.75h-4.637v4.75h-3.409V89.006h3.41v3.923h4.637v-3.923h3.41v10.717zm2.806 0V89.006h9.176v2.044h-5.785v1.88h5.33v2.043h-5.33v2.706h5.785v2.044h-9.176zm19.556 0V91.05h-4.01v-2.044h11.428v2.044h-4.01v8.673h-3.408zm19.263-7.334c0 .499-.1.973-.302 1.425-.2.45-.488.828-.864 1.13a5.79 5.79 0 0 1-.76.516c-.276.16-.581.295-.917.403-.333.11-.697.2-1.088.26a8.475 8.475 0 0 1-1.316.094h-1.786v3.506h-3.409V89.006h5.266c.784 0 1.459.056 2.028.169a5.57 5.57 0 0 1 1.543.535c.51.268.905.627 1.186 1.077.279.45.419.983.419 1.602zm-3.499.064c0-.302-.09-.563-.274-.781a1.384 1.384 0 0 0-.656-.45 3.458 3.458 0 0 0-.924-.192 22.024 22.024 0 0 0-1.198-.025h-.482v3.212h.237c.323 0 .625-.002.91-.008.287-.005.536-.022.748-.048.182-.025.376-.072.578-.143.202-.069.36-.148.47-.234.23-.176.385-.36.466-.553.084-.194.125-.452.125-.778zm3.863 7.27l4.585-10.718h3.717l4.585 10.718h-3.509l-.852-2.189h-4.259l-.848 2.19H65.77zm7.782-4.133l-1.384-3.53-1.387 3.53h2.771zm9.058 4.133V91.05H78.6v-2.044h11.428v2.044H86.02v8.673h-3.41zm19.65-3.425c0 .523-.128 1.002-.38 1.442-.252.44-.598.799-1.033 1.077a5.338 5.338 0 0 1-1.692.702c-.603.135-1.34.204-2.21.204h-5.514V89.005h3.4v4.025H97c.796 0 1.518.044 2.162.133a4.444 4.444 0 0 1 1.757.624c.47.287.809.648 1.02 1.081.215.435.321.912.321 1.43zm-3.52.078c0-.177-.024-.343-.07-.503a.93.93 0 0 0-.321-.438c-.165-.13-.389-.233-.675-.31-.286-.075-.681-.115-1.185-.115H94.83v2.725h1.658c.694 0 1.241-.115 1.645-.349.405-.233.607-.57.607-1.01zm22.247 3.347h-3.408v-4.75h-4.638v4.75h-3.41V89.005h3.41v3.924h4.638v-3.924h3.408v10.718zm1.347 0l4.586-10.718h3.717l4.584 10.718h-3.508l-.852-2.189h-4.26l-.848 2.19h-3.419zm7.783-4.133l-1.384-3.53-1.387 3.53h2.77zm23.376 4.133h-3.41v-4.75h-4.637v4.75h-3.41V89.005h3.41v3.924h4.637v-3.924h3.41v10.718zm2.805 0V89.005h9.176v2.045h-5.785v1.88h5.331v2.043h-5.331v2.706h5.785v2.044h-9.176zm11.482 0V89.005h9.176v2.045h-5.786v1.88h5.331v2.043h-5.33v2.706h5.785v2.044h-9.176zm30.81 0h-3.391V92.62l-2.47 4.585h-2.323l-2.47-4.585v7.103h-3.207V89.005h3.926l3.007 5.29 2.999-5.29h3.929v10.718zm14.261 0h-3.409v-4.75h-4.638v4.75h-3.409V89.005h3.409v3.924h4.638v-3.924h3.409v10.718zm15.164-5.356c0 1.734-.585 3.095-1.757 4.09-1.173.993-2.782 1.49-4.822 1.49-2.05 0-3.654-.504-4.821-1.51-1.166-1.004-1.751-2.36-1.751-4.07 0-1.723.585-3.084 1.75-4.084 1.168-1 2.772-1.501 4.822-1.501 2.04 0 3.649.499 4.822 1.494 1.172.995 1.757 2.359 1.757 4.09zm-3.518-.005c0-.64-.084-1.185-.252-1.632a3.078 3.078 0 0 0-.669-1.105 2.57 2.57 0 0 0-.99-.63 3.464 3.464 0 0 0-1.143-.19c-.418 0-.797.058-1.139.176-.34.118-.669.327-.983.629-.28.278-.507.649-.678 1.108-.174.462-.26 1.012-.26 1.649 0 .658.08 1.204.245 1.638.164.435.388.799.674 1.092.293.297.623.51.993.636a3.496 3.496 0 0 0 2.318-.015c.376-.135.699-.349.973-.636.292-.313.516-.676.675-1.09.158-.417.236-.96.236-1.63zm14.681-3.312h-5.742v8.673h-3.409V89.005h9.151v2.045zm13.761 3.317c0 1.734-.585 3.095-1.757 4.09-1.173.993-2.781 1.49-4.822 1.49-2.05 0-3.654-.504-4.82-1.51-1.167-1.004-1.752-2.36-1.752-4.07 0-1.723.585-3.084 1.751-4.084 1.167-1 2.772-1.501 4.821-1.501 2.04 0 3.649.499 4.822 1.494 1.172.995 1.757 2.359 1.757 4.09zm-3.518-.005c0-.64-.084-1.185-.252-1.632a3.085 3.085 0 0 0-.668-1.105 2.57 2.57 0 0 0-.99-.63 3.467 3.467 0 0 0-1.144-.19c-.417 0-.797.058-1.139.176a2.713 2.713 0 0 0-.983.629c-.28.278-.507.649-.678 1.108-.174.462-.26 1.012-.26 1.649 0 .658.08 1.204.245 1.638.164.435.389.799.674 1.092.293.297.622.51.993.636a3.5 3.5 0 0 0 2.318-.015c.376-.135.7-.349.973-.636.292-.313.516-.676.675-1.09.158-.417.236-.96.236-1.63zm21.851 2.078c0 .534-.127 1.003-.382 1.406a3.134 3.134 0 0 1-1.03 1 5.33 5.33 0 0 1-1.682.675c-.61.136-1.385.202-2.327.202h-5.431V89.005h4.793c.996 0 1.751.03 2.265.092a5.14 5.14 0 0 1 1.443.375c.485.206.85.484 1.089.828.24.347.36.745.36 1.197 0 .523-.164.987-.497 1.395-.33.408-.788.708-1.369.902v.057c.837.14 1.509.422 2.013.852s.755 1.01.755 1.737zm-4.364-4.403c0-.174-.056-.351-.168-.533a.945.945 0 0 0-.525-.395 2.586 2.586 0 0 0-.796-.128 61.32 61.32 0 0 0-1.372-.01h-.237v2.268h.43c.581 0 .992-.005 1.225-.015.233-.01.476-.059.725-.15.271-.1.46-.24.563-.417.103-.18.155-.386.155-.62zm.856 4.354c0-.331-.084-.59-.256-.776-.17-.19-.425-.33-.765-.425-.205-.064-.49-.098-.852-.106-.36-.007-.845-.01-1.452-.01h-.629v2.683h.184c.886 0 1.499-.004 1.838-.014.339-.01.688-.074 1.04-.195.31-.105.534-.26.677-.464a1.18 1.18 0 0 0 .215-.693zm15.9-4.002c0 .499-.099.973-.301 1.425-.2.45-.489.828-.865 1.13-.23.187-.485.359-.76.516a4.73 4.73 0 0 1-.916.403c-.333.11-.698.2-1.089.26-.392.062-.83.094-1.316.094h-1.785v3.506h-3.41V89.006h5.266c.784 0 1.46.056 2.029.169a5.56 5.56 0 0 1 1.542.535c.51.268.906.627 1.186 1.077.28.45.42.983.42 1.602zm-3.498.064c0-.302-.09-.563-.275-.781a1.384 1.384 0 0 0-.656-.45 3.462 3.462 0 0 0-.924-.192 22.05 22.05 0 0 0-1.197-.025h-.482v3.212h.236c.323 0 .625-.002.911-.008.287-.005.536-.022.747-.048a2.96 2.96 0 0 0 .579-.143 1.62 1.62 0 0 0 .469-.234c.231-.176.386-.36.467-.553.083-.194.125-.452.125-.778zm5.321 7.27V89.005h9.177v2.045h-5.786v1.88h5.33v2.043h-5.33v2.706h5.786v2.044h-9.177zm25.342 0h-3.39V92.62l-2.47 4.585h-2.324l-2.47-4.585v7.103h-3.207V89.005h3.926l3.008 5.29 2.998-5.29h3.929v10.718zm2.806 0V89.005h9.176v2.045h-5.786v1.88h5.331v2.043h-5.33v2.706h5.785v2.044h-9.176zm22.937 0h-3.41v-4.75h-4.637v4.75h-3.409V89.005h3.409v3.924h4.638v-3.924h3.409v10.718zm14.522 0h-3.352v-7.062l-5.21 7.062h-3.154V89.005h3.353v6.384l4.818-6.384h3.545v10.718z"/><path class="fil2" d="M23.483 19.357c0 1.776-.584 3.16-1.75 4.15-1.168.99-2.749 1.486-4.74 1.486a10.91 10.91 0 0 1-2.59-.29c-.794-.194-1.39-.368-1.786-.525v-2.389h.307c.11.08.298.203.564.373.262.167.524.305.78.414.337.14.701.256 1.089.345a5.652 5.652 0 0 0 2.432.008c.4-.085.77-.232 1.11-.445.348-.223.643-.506.885-.852.241-.344.396-.796.459-1.353H15.06v-2.013h5.113a2.734 2.734 0 0 0-.456-1.06 2.692 2.692 0 0 0-.802-.72 3.613 3.613 0 0 0-1.01-.4 4.87 4.87 0 0 0-1.095-.124c-.45 0-.861.046-1.237.138-.375.092-.73.21-1.061.35a5.9 5.9 0 0 0-.829.444l-.551.365h-.34v-2.41c.56-.223 1.21-.416 1.956-.578a11.58 11.58 0 0 1 2.471-.245c1.91 0 3.431.48 4.564 1.435 1.133.959 1.7 2.256 1.7 3.896zm4.427 5.43v-8.542h-3.843v-2.013H35.02v2.013h-3.843v8.542H27.91zm20.3-5.275c0 1.709-.561 3.05-1.685 4.03-1.124.977-2.666 1.466-4.62 1.466-1.966 0-3.504-.496-4.622-1.486-1.118-.99-1.679-2.326-1.679-4.01 0-1.696.56-3.037 1.68-4.022 1.117-.985 2.655-1.478 4.62-1.478 1.955 0 3.497.49 4.62 1.47 1.125.98 1.685 2.324 1.685 4.03zm-3.373-.005c0-.629-.08-1.166-.241-1.607a3.052 3.052 0 0 0-.641-1.088 2.44 2.44 0 0 0-.948-.62 3.229 3.229 0 0 0-1.097-.189c-.4 0-.763.058-1.09.174a2.6 2.6 0 0 0-.943.62c-.268.273-.486.639-.65 1.091-.167.455-.25.997-.25 1.624 0 .649.077 1.186.234 1.614.159.429.373.787.648 1.075.28.292.596.503.95.626.355.126.725.19 1.1.19.386 0 .758-.069 1.122-.204.36-.133.67-.344.933-.627a3.26 3.26 0 0 0 .647-1.074c.152-.41.226-.944.226-1.605z" stroke="#ed9c00" stroke-width=".392"/><path class="fil1" d="M6.299 43.256l13.829-8.211m-8.211 21.176l7.779-4.322m-8.211 26.362l12.101-6.05m44.749-32.512l10.804-6.482M65.073 79.99l10.804-6.483m-10.804-8.643l13.829-8.211m42.784-12.1l14.694-8.644m-1.729 19.016l6.914-4.322m6.915 12.1l19.447-11.236m-42.784 28.091l14.694-8.211m6.05 2.593l9.075-5.618m2.593-34.141l5.186-3.025m19.448 9.507l11.236-6.482m-12.101 25.065l9.076-5.618m-10.804 24.633l15.99-9.939m3.356-7.881l6.051-3.457m10.904-19.346l9.075-5.186m-8.211 24.201l12.965-7.779m-14.261 30.684l10.804-6.915m10.372-9.94l7.346-4.321m9.076-19.88l10.804-6.914m2.161 38.462l9.507-6.05m11.669 16.422l19.879-12.1m-9.292-14.478l9.076-5.618m-4.538-10.588l10.372-6.05m8.859 17.07l9.94-6.482m-5.402 24.849l14.261-9.075m-5.186 19.015l12.101-7.779m-115.819 12.1l8.211-5.186" stroke="#ed9c00" stroke-width="1.286"/></svg>